<?xml version="1.0" standalone="no"?><!DOCTYPE svg PUBLIC "-//W3C//DTD SVG 1.1//EN" "http://www.w3.org/Graphics/SVG/1.1/DTD/svg11.dtd"><svg t="1607937852428" class="icon" viewBox="0 0 1024 1024" version="1.1" xmlns="http://www.w3.org/2000/svg" p-id="3167" width="48" height="48" xmlns:xlink="http://www.w3.org/1999/xlink"><defs><style type="text/css"></style></defs><path d="M772.8128 497.2544 589.6192 308.6336c-4.5056-4.608-9.4208-8.3968-14.4384-12.1856L738.304 296.448c10.5472 0 19.456-10.4448 19.456-23.2448 0-12.4928-8.704-23.2448-19.456-23.2448l-473.088 0c-10.5472 0-19.456 10.4448-19.456 23.2448 0 12.4928 8.704 23.2448 19.456 23.2448l162.7136 0c-5.0176 3.8912-10.1376 7.7824-14.6432 12.3904L230.6048 496.9472c-8.2944 8.6016-8.2944 22.4256 0 31.0272 8.2944 8.6016 21.8112 8.6016 30.208 0l182.6816-188.0064c10.4448-10.752 23.3472-17.92 37.1712-21.7088 0 0.512-0.3072 1.024-0.3072 1.6384l0 458.24c0 14.5408 9.5232 26.7264 21.2992 26.7264 11.4688 0 21.2992-11.9808 21.2992-26.7264L522.9568 319.7952c0-0.512-0.2048-1.024-0.2048-1.536 13.6192 3.7888 26.3168 10.8544 36.5568 21.504l183.1936 188.6208c4.1984 4.3008 9.6256 6.4512 15.0528 6.4512 5.4272 0 10.9568-2.1504 15.0528-6.4512C781.1072 519.68 781.1072 505.856 772.8128 497.2544z" p-id="3168"></path></svg>